<?xml version="1.0" encoding="UTF-8" standalone="no"?>
<!DOCTYPE svg PUBLIC "-//W3C//DTD SVG 1.1//EN" "http://www.w3.org/Graphics/SVG/1.1/DTD/svg11.dtd">
<svg width="100%" height="100%" viewBox="0 0 213 150" version="1.1" xmlns="http://www.w3.org/2000/svg" xmlns:xlink="http://www.w3.org/1999/xlink" xml:space="preserve" xmlns:serif="http://www.serif.com/" style="fill-rule:evenodd;clip-rule:evenodd;stroke-linejoin:round;stroke-miterlimit:2;">
    <g transform="matrix(1,0,0,1,-18.878491,-0)">
        <g transform="matrix(0.537592,0,0,0.537592,299.434338,-109.859061)">
            <g transform="matrix(0.770684,0,0,0.770684,-521.87457,202.82321)">
                <path d="M0,251.5L0,244.5C0.444,244.46 5.441,244.006 5.554,243.989C8.853,243.507 8.239,241.073 74.202,133.337C76.523,129.547 73.785,129.796 72.455,128.554C71.537,127.698 64.812,122.671 64.226,115.53C62.179,90.603 85.472,91.36 86.467,91.621C89.93,92.526 90.09,91.89 94.49,87.49L132.49,49.49C136.775,45.205 134.723,44.253 135.244,9.498C135.378,0.502 143.561,2.065 152.503,2.143C162.462,2.23 160.552,11.618 160.552,21.5C160.552,112.499 160.662,112.553 159.749,115.584C157.817,122.003 139.231,120.664 136.602,117.429C133.926,114.137 135.6,77.942 135.422,71.528C135.377,69.935 134.477,70.199 133.468,71.454C131.113,74.381 103.759,101.389 103.598,101.585C101.749,103.847 107.748,113.989 101.159,123.287C95.944,130.647 92.704,128.306 92.749,131.477C92.759,132.216 152.973,235.773 154.795,239.346C158.479,246.567 162.4,243.559 164.616,244.199C166.343,244.699 167.188,257.115 153.155,271.156C123.068,301.259 60.565,298.013 37.365,286.814C36.555,286.423 30.419,283.461 27.215,281.965C14.557,276.056 3.164,262.497 1.349,254.536C0.975,252.892 0.695,253.063 0,251.5ZM74.038,114.615C79.801,131.443 102.632,118.003 92.089,104.866C87.214,98.793 71.773,100.281 74.038,114.615ZM80.5,244.093C143.255,244.093 143.589,244.208 144.081,243.334C144.729,242.184 119.219,200.211 113.179,188.674C111.15,184.796 110.866,185.014 85.812,141.309C84.567,139.136 84.057,137.559 82.725,139.663C81.407,141.744 81.86,141.998 67.068,166.172C63.297,172.336 20.32,242.571 20.428,243.532C20.501,244.181 20.887,244.093 80.5,244.093Z" style="fill:rgb(0,85,255);fill-opacity:1;"/>
                <path d="M444.542,293.946C389.243,300.682 347.478,273.131 346.305,246.501C346.094,241.712 353.39,246.572 356.157,241.313C359.549,234.868 415.922,137.677 417.227,135.354C419.119,131.986 420.075,131.095 416.824,129.082C413.792,127.204 404.829,119.492 408.292,106.456C409.955,100.199 407.411,100.698 402.857,96.143C378.349,71.636 376.658,68.651 376.586,71.53C376.068,92.05 377.709,91.997 376.76,112.504C376.218,124.225 356.064,119.608 354.091,117.992C351.089,115.532 351.461,114.744 351.461,32.5C351.461,10.47 350.013,2.373 358.487,2.161C369.093,1.894 376.631,0.904 376.763,9.497C377.317,45.795 376.352,46.319 378.512,48.488C379.714,49.695 379.68,49.659 417.51,87.49C421.917,91.896 422.079,92.526 425.533,91.621C429.613,90.551 443.393,93.664 446.703,104.437C451.365,119.61 442.573,125.739 439.547,128.557C438.206,129.805 435.491,129.546 437.803,133.334C440.626,137.96 470.534,186.963 472.841,191.31C472.883,191.389 483.49,208.009 486.817,214.325C487.82,216.231 488.564,215.775 500.791,237.342C505.2,245.119 506.283,244.048 507.503,244.092C514.095,244.328 512.444,247.245 510.821,253.564C505.119,275.756 472.021,292.071 444.542,293.946ZM437.97,114.617C440.271,100.274 424.794,98.795 419.918,104.873C409.377,118.013 432.248,131.424 437.97,114.617ZM478.5,244.093C487.775,244.1 492.205,244.786 491.499,242.5C490.948,240.717 489.774,241.409 479.251,222.639C478.575,221.433 458.29,188.277 456.25,184.64C455.565,183.419 435.273,150.25 433.248,146.641C428.778,138.675 428.386,138.509 427.732,138.898C427.011,139.328 413.945,162.571 412.777,164.648C400.631,186.254 367.491,242.051 367.918,243.336C368.203,244.192 368.631,244.093 478.5,244.093Z" style="fill:rgb(0,85,255);fill-opacity:1;"/>
            </g>
            <g>
                <g transform="matrix(0.770684,0,0,0.770684,-521.438097,198.200371)">
                    <path d="M170.063,31.458C171.176,16.215 182.8,11.438 185.349,10.173C190.104,7.813 190.366,8.097 285.5,8.097C314.629,8.097 326.662,6.388 334.748,16.307C342.727,26.095 341.818,30.425 341.82,41.5C341.826,92.254 343.089,95.228 334.155,104.155C325.205,113.099 323.607,111.821 262.5,111.821C187.528,111.821 186.129,112.869 178.491,105.51C177.119,104.188 169.497,96.845 169.409,83.5C169.097,36.312 169.25,35.541 170.063,31.458Z" style="fill:rgb(0,85,255);fill-opacity:1;"/>
                </g>
                <g transform="matrix(0.770684,0,0,0.770684,-521.438097,198.200371)">
                    <path d="M256.5,127.049C300.477,127.217 303.504,125.961 302.44,129.484C297.393,146.191 273.301,147.661 272.379,149.407C271.287,151.476 272.448,314.281 271.759,321.532C271.349,325.849 266.052,329.496 262.511,329.675C244.276,330.595 243.492,327.568 242.027,325.917C236.817,320.039 239.554,318.808 239.193,151.503C239.183,146.753 233.939,149.406 221.682,143.157C208.213,136.29 208.005,127.716 210.403,127.152C212.946,126.555 252.812,127.007 256.5,127.049Z" style="fill:rgb(0,85,255);fill-opacity:1;"/>
                </g>
                <g transform="matrix(0.770684,0,0,0.770684,-521.438097,198.200371)">
                    <path d="M239.454,342.069C244.499,341.592 277.1,338.513 302.31,349.882C320.123,357.915 321.241,368.317 320.331,369.342C319.241,370.569 199.953,369.79 189.486,369.722C184.606,369.69 189.506,361.486 190.473,360.476C205.748,344.52 230.935,343.02 239.454,342.069Z" style="fill:rgb(0,85,255);fill-opacity:1;"/>
                </g>
            </g>
        </g>
    </g>
</svg>
