<?xml version="1.0" encoding="UTF-8" standalone="no"?>
<!DOCTYPE svg PUBLIC "-//W3C//DTD SVG 1.1//EN" "http://www.w3.org/Graphics/SVG/1.1/DTD/svg11.dtd">
<svg width="100%" height="100%" viewBox="0 0 775 150" version="1.1" xmlns="http://www.w3.org/2000/svg" xmlns:xlink="http://www.w3.org/1999/xlink" xml:space="preserve" xmlns:serif="http://www.serif.com/" style="fill-rule:evenodd;clip-rule:evenodd;stroke-linejoin:round;stroke-miterlimit:2;">
    <g transform="matrix(1,0,0,1,-18.878491,-0)">
        <g transform="matrix(0.537592,0,0,0.537592,299.434338,-109.859061)">
            <g transform="matrix(0.770684,0,0,0.770684,-521.87457,202.82321)">
                <path d="M0,251.5L0,244.5C0.444,244.46 5.441,244.006 5.554,243.989C8.853,243.507 8.239,241.073 74.202,133.337C76.523,129.547 73.785,129.796 72.455,128.554C71.537,127.698 64.812,122.671 64.226,115.53C62.179,90.603 85.472,91.36 86.467,91.621C89.93,92.526 90.09,91.89 94.49,87.49L132.49,49.49C136.775,45.205 134.723,44.253 135.244,9.498C135.378,0.502 143.561,2.065 152.503,2.143C162.462,2.23 160.552,11.618 160.552,21.5C160.552,112.499 160.662,112.553 159.749,115.584C157.817,122.003 139.231,120.664 136.602,117.429C133.926,114.137 135.6,77.942 135.422,71.528C135.377,69.935 134.477,70.199 133.468,71.454C131.113,74.381 103.759,101.389 103.598,101.585C101.749,103.847 107.748,113.989 101.159,123.287C95.944,130.647 92.704,128.306 92.749,131.477C92.759,132.216 152.973,235.773 154.795,239.346C158.479,246.567 162.4,243.559 164.616,244.199C166.343,244.699 167.188,257.115 153.155,271.156C123.068,301.259 60.565,298.013 37.365,286.814C36.555,286.423 30.419,283.461 27.215,281.965C14.557,276.056 3.164,262.497 1.349,254.536C0.975,252.892 0.695,253.063 0,251.5ZM74.038,114.615C79.801,131.443 102.632,118.003 92.089,104.866C87.214,98.793 71.773,100.281 74.038,114.615ZM80.5,244.093C143.255,244.093 143.589,244.208 144.081,243.334C144.729,242.184 119.219,200.211 113.179,188.674C111.15,184.796 110.866,185.014 85.812,141.309C84.567,139.136 84.057,137.559 82.725,139.663C81.407,141.744 81.86,141.998 67.068,166.172C63.297,172.336 20.32,242.571 20.428,243.532C20.501,244.181 20.887,244.093 80.5,244.093Z" style="fill:rgb(0,85,255);fill-opacity:1;"/>
                <path d="M444.542,293.946C389.243,300.682 347.478,273.131 346.305,246.501C346.094,241.712 353.39,246.572 356.157,241.313C359.549,234.868 415.922,137.677 417.227,135.354C419.119,131.986 420.075,131.095 416.824,129.082C413.792,127.204 404.829,119.492 408.292,106.456C409.955,100.199 407.411,100.698 402.857,96.143C378.349,71.636 376.658,68.651 376.586,71.53C376.068,92.05 377.709,91.997 376.76,112.504C376.218,124.225 356.064,119.608 354.091,117.992C351.089,115.532 351.461,114.744 351.461,32.5C351.461,10.47 350.013,2.373 358.487,2.161C369.093,1.894 376.631,0.904 376.763,9.497C377.317,45.795 376.352,46.319 378.512,48.488C379.714,49.695 379.68,49.659 417.51,87.49C421.917,91.896 422.079,92.526 425.533,91.621C429.613,90.551 443.393,93.664 446.703,104.437C451.365,119.61 442.573,125.739 439.547,128.557C438.206,129.805 435.491,129.546 437.803,133.334C440.626,137.96 470.534,186.963 472.841,191.31C472.883,191.389 483.49,208.009 486.817,214.325C487.82,216.231 488.564,215.775 500.791,237.342C505.2,245.119 506.283,244.048 507.503,244.092C514.095,244.328 512.444,247.245 510.821,253.564C505.119,275.756 472.021,292.071 444.542,293.946ZM437.97,114.617C440.271,100.274 424.794,98.795 419.918,104.873C409.377,118.013 432.248,131.424 437.97,114.617ZM478.5,244.093C487.775,244.1 492.205,244.786 491.499,242.5C490.948,240.717 489.774,241.409 479.251,222.639C478.575,221.433 458.29,188.277 456.25,184.64C455.565,183.419 435.273,150.25 433.248,146.641C428.778,138.675 428.386,138.509 427.732,138.898C427.011,139.328 413.945,162.571 412.777,164.648C400.631,186.254 367.491,242.051 367.918,243.336C368.203,244.192 368.631,244.093 478.5,244.093Z" style="fill:rgb(0,85,255);fill-opacity:1;"/>
            </g>
            <g>
                <g transform="matrix(0.770684,0,0,0.770684,-521.438097,198.200371)">
                    <path d="M170.063,31.458C171.176,16.215 182.8,11.438 185.349,10.173C190.104,7.813 190.366,8.097 285.5,8.097C314.629,8.097 326.662,6.388 334.748,16.307C342.727,26.095 341.818,30.425 341.82,41.5C341.826,92.254 343.089,95.228 334.155,104.155C325.205,113.099 323.607,111.821 262.5,111.821C187.528,111.821 186.129,112.869 178.491,105.51C177.119,104.188 169.497,96.845 169.409,83.5C169.097,36.312 169.25,35.541 170.063,31.458Z" style="fill:rgb(0,85,255);fill-opacity:1;"/>
                </g>
                <g transform="matrix(0.770684,0,0,0.770684,-521.438097,198.200371)">
                    <path d="M256.5,127.049C300.477,127.217 303.504,125.961 302.44,129.484C297.393,146.191 273.301,147.661 272.379,149.407C271.287,151.476 272.448,314.281 271.759,321.532C271.349,325.849 266.052,329.496 262.511,329.675C244.276,330.595 243.492,327.568 242.027,325.917C236.817,320.039 239.554,318.808 239.193,151.503C239.183,146.753 233.939,149.406 221.682,143.157C208.213,136.29 208.005,127.716 210.403,127.152C212.946,126.555 252.812,127.007 256.5,127.049Z" style="fill:rgb(0,85,255);fill-opacity:1;"/>
                </g>
                <g transform="matrix(0.770684,0,0,0.770684,-521.438097,198.200371)">
                    <path d="M239.454,342.069C244.499,341.592 277.1,338.513 302.31,349.882C320.123,357.915 321.241,368.317 320.331,369.342C319.241,370.569 199.953,369.79 189.486,369.722C184.606,369.69 189.506,361.486 190.473,360.476C205.748,344.52 230.935,343.02 239.454,342.069Z" style="fill:rgb(0,85,255);fill-opacity:1;"/>
                </g>
            </g>
        </g>
        <g transform="matrix(0.520992,0,0,0.520992,-62.855444,-306.275767)">
            <g transform="matrix(1.493063,0,0,0.900039,66.880154,-55.438224)">
                <path d="M419.927,911.578L378.227,911.578L371.327,944.673L349.277,944.673L386.927,770.738L411.377,770.738L449.027,944.673L426.827,944.673L419.927,911.578ZM414.227,883.709L399.077,811.049L383.927,883.709L414.227,883.709Z" style="fill:rgb(1,86,255);fill-rule:nonzero;"/>
                <path d="M484.127,826.975C486.827,820.339 490.552,814.948 495.302,810.801C500.052,806.653 505.477,804.58 511.577,804.58C518.677,804.58 525.102,807.483 530.852,813.289C536.602,819.095 541.152,827.348 544.502,838.048C547.852,848.748 549.527,861.148 549.527,875.248C549.527,889.349 547.852,901.832 544.502,912.698C541.152,923.563 536.602,931.982 530.852,937.954C525.102,943.926 518.677,946.912 511.577,946.912C505.377,946.912 499.952,944.88 495.302,940.816C490.652,936.752 486.927,931.485 484.127,925.015L484.127,944.673L463.127,944.673L463.127,760.536L484.127,760.536L484.127,826.975ZM528.077,875.248C528.077,866.954 527.052,859.779 525.002,853.724C522.952,847.669 520.252,843.066 516.902,839.914C513.552,836.762 509.927,835.186 506.027,835.186C502.227,835.186 498.652,836.804 495.302,840.038C491.952,843.273 489.252,847.96 487.202,854.098C485.152,860.235 484.127,867.452 484.127,875.746C484.127,884.04 485.152,891.257 487.202,897.395C489.252,903.532 491.952,908.219 495.302,911.454C498.652,914.688 502.227,916.306 506.027,916.306C509.927,916.306 513.552,914.647 516.902,911.329C520.252,908.011 522.952,903.284 525.002,897.146C527.052,891.008 528.077,883.709 528.077,875.248Z" style="fill:rgb(1,86,255);fill-rule:nonzero;"/>
                <path d="M601.727,946.912C593.727,946.912 586.527,943.968 580.127,938.079C573.727,932.19 568.702,923.854 565.052,913.071C561.402,902.288 559.577,889.847 559.577,875.746C559.577,861.645 561.452,849.204 565.202,838.421C568.952,827.638 574.077,819.302 580.577,813.413C587.077,807.524 594.327,804.58 602.327,804.58C610.327,804.58 617.577,807.524 624.077,813.413C630.577,819.302 635.702,827.638 639.452,838.421C643.202,849.204 645.077,861.645 645.077,875.746C645.077,889.847 643.152,902.288 639.302,913.071C635.452,923.854 630.252,932.19 623.702,938.079C617.152,943.968 609.827,946.912 601.727,946.912ZM601.727,916.555C605.527,916.555 609.102,915.02 612.452,911.951C615.802,908.882 618.477,904.279 620.477,898.141C622.477,892.003 623.477,884.538 623.477,875.746C623.477,862.641 621.402,852.563 617.252,845.513C613.102,838.463 608.027,834.937 602.027,834.937C596.027,834.937 591.002,838.463 586.952,845.513C582.902,852.563 580.877,862.641 580.877,875.746C580.877,888.851 582.852,898.929 586.802,905.979C590.752,913.03 595.727,916.555 601.727,916.555Z" style="fill:rgb(1,86,255);fill-rule:nonzero;"/>
                <path d="M693.077,804.58C699.277,804.58 704.727,806.612 709.427,810.676C714.127,814.74 717.827,820.007 720.527,826.477L720.527,806.819L741.677,806.819L741.677,945.668C741.677,958.442 740.127,969.846 737.027,979.883C733.927,989.919 729.277,997.882 723.077,1003.771C716.877,1009.66 709.377,1012.604 700.577,1012.604C688.777,1012.604 679.102,1008.042 671.552,998.918C664.002,989.795 659.727,977.353 658.727,961.593L679.577,961.593C680.677,967.897 683.052,972.915 686.702,976.648C690.352,980.38 694.777,982.247 699.977,982.247C706.077,982.247 711.027,979.219 714.827,973.164C718.627,967.109 720.527,957.944 720.527,945.668L720.527,924.268C717.827,930.738 714.102,936.13 709.352,940.443C704.602,944.756 699.177,946.912 693.077,946.912C686.077,946.912 679.677,943.926 673.877,937.954C668.077,931.982 663.502,923.563 660.152,912.698C656.802,901.832 655.127,889.349 655.127,875.248C655.127,861.314 656.802,848.955 660.152,838.172C663.502,827.389 668.052,819.095 673.802,813.289C679.552,807.483 685.977,804.58 693.077,804.58ZM720.527,875.746C720.527,867.286 719.527,860.028 717.527,853.973C715.527,847.918 712.827,843.273 709.427,840.038C706.027,836.804 702.377,835.186 698.477,835.186C694.577,835.186 690.977,836.762 687.677,839.914C684.377,843.066 681.702,847.669 679.652,853.724C677.602,859.779 676.577,866.954 676.577,875.248C676.577,883.543 677.602,890.8 679.652,897.021C681.702,903.242 684.402,908.011 687.752,911.329C691.102,914.647 694.677,916.306 698.477,916.306C702.377,916.306 706.027,914.688 709.427,911.454C712.827,908.219 715.527,903.574 717.527,897.519C719.527,891.464 720.527,884.206 720.527,875.746Z" style="fill:rgb(1,86,255);fill-rule:nonzero;"/>
                <path d="M849.077,770.987L849.077,944.673L828.077,944.673L828.077,870.769L783.227,870.769L783.227,944.673L762.227,944.673L762.227,770.987L783.227,770.987L783.227,842.402L828.077,842.402L828.077,770.987L849.077,770.987Z" style="fill:rgb(0,200,83);fill-rule:nonzero;"/>
                <path d="M948.227,806.819L948.227,944.673L927.077,944.673L927.077,927.254C924.377,933.226 920.852,937.913 916.502,941.314C912.152,944.714 907.427,946.415 902.327,946.415C895.827,946.415 890.077,944.134 885.077,939.572C880.077,935.01 876.152,928.291 873.302,919.416C870.452,910.541 869.027,899.966 869.027,887.69L869.027,806.819L890.027,806.819L890.027,882.713C890.027,893.662 891.677,902.081 894.977,907.97C898.277,913.859 902.777,916.803 908.477,916.803C914.277,916.803 918.827,913.859 922.127,907.97C925.427,902.081 927.077,893.662 927.077,882.713L927.077,806.819L948.227,806.819Z" style="fill:rgb(0,200,83);fill-rule:nonzero;"/>
                <path d="M989.927,826.975C992.627,820.339 996.352,814.948 1001.102,810.801C1005.852,806.653 1011.277,804.58 1017.377,804.58C1024.477,804.58 1030.902,807.483 1036.652,813.289C1042.402,819.095 1046.952,827.348 1050.302,838.048C1053.652,848.748 1055.327,861.148 1055.327,875.248C1055.327,889.349 1053.652,901.832 1050.302,912.698C1046.952,923.563 1042.402,931.982 1036.652,937.954C1030.902,943.926 1024.477,946.912 1017.377,946.912C1011.177,946.912 1005.752,944.88 1001.102,940.816C996.452,936.752 992.727,931.485 989.927,925.015L989.927,944.673L968.927,944.673L968.927,760.536L989.927,760.536L989.927,826.975ZM1033.877,875.248C1033.877,866.954 1032.852,859.779 1030.802,853.724C1028.752,847.669 1026.052,843.066 1022.702,839.914C1019.352,836.762 1015.727,835.186 1011.827,835.186C1008.027,835.186 1004.452,836.804 1001.102,840.038C997.752,843.273 995.052,847.96 993.002,854.098C990.952,860.235 989.927,867.452 989.927,875.746C989.927,884.04 990.952,891.257 993.002,897.395C995.052,903.532 997.752,908.219 1001.102,911.454C1004.452,914.688 1008.027,916.306 1011.827,916.306C1015.727,916.306 1019.352,914.647 1022.702,911.329C1026.052,908.011 1028.752,903.284 1030.802,897.146C1032.852,891.008 1033.877,883.709 1033.877,875.248Z" style="fill:rgb(0,200,83);fill-rule:nonzero;"/>
            </g>
        </g>
    </g>
</svg>
